<svg id="kity_svg_6" xmlns="http://www.w3.org/2000/svg" xmlns:xlink="http://www.w3.org/1999/xlink" version="1.1" width="1050" height="543" style="background: rgb(251, 251, 251); visibility: visible;" viewBox="0 0 1050 543"><defs id="kity_defs_7"><linearGradient id="kity_linearGradient_17" x1="0" y1="0" x2="0" y2="1"><stop id="kity_stop_18" offset="0" stop-color="rgb(255, 255, 255)"></stop><stop id="kity_stop_19" offset="1" stop-color="rgb(204, 204, 204)"></stop></linearGradient><marker id="kity_marker_2" orient="auto" refX="6" refY="0" viewBox="-7 -7 14 14" markerWidth="7" markerHeight="7" markerUnits="userSpaceOnUse"><path id="kity_path_3" fill="rgb(123, 115, 191)" stroke="none" d="M6,0A6,6,0,1,1,-6,0A6,6,0,1,1,6,0"></path></marker></defs><g id="kity_g_8"><g id="minder1" text-rendering="optimize-speed"><g id="minder_connect_group1"><path id="kity_path_31" fill="none" stroke="rgb(123, 115, 191)" stroke-width="1" d="M547,244.5A176.5,138,0,0,1,723.5,106.5"></path><path id="kity_path_33" fill="none" stroke="rgb(123, 115, 191)" stroke-width="1" d="M825.5,106.5C840.5,106.5,840.5,98.5,855.5,98.5L948.5,98.5"></path><path id="kity_path_35" fill="none" stroke="rgb(123, 115, 191)" stroke-width="1" d="M825.5,106.5C840.5,106.5,840.5,150.5,855.5,150.5L926.5,150.5"></path><path id="kity_path_37" fill="none" stroke="rgb(123, 115, 191)" stroke-width="1" d="M547,244.5A176.5,10,0,0,0,723.5,254.5"></path><path id="kity_path_39" fill="none" stroke="rgb(123, 115, 191)" stroke-width="1" d="M804.5,254.5C819.5,254.5,819.5,212.5,834.5,212.5L916.5,212.5"></path><path id="kity_path_41" fill="none" stroke="rgb(123, 115, 191)" stroke-width="1" d="M804.5,254.5C819.5,254.5,819.5,264.5,834.5,264.5L921.5,264.5"></path><path id="kity_path_43" fill="none" stroke="rgb(123, 115, 191)" stroke-width="1" d="M804.5,254.5C819.5,254.5,819.5,324.5,834.5,324.5L1030.5,324.5"></path><path id="kity_path_45" fill="none" stroke="rgb(123, 115, 191)" stroke-width="1" d="M547,244.5A176.5,134,0,0,0,723.5,378.5"></path><path id="kity_path_47" fill="none" stroke="rgb(123, 115, 191)" stroke-width="1" d="M547,244.5A176.5,135,0,0,0,370.5,109.5"></path><path id="kity_path_49" fill="none" stroke="rgb(123, 115, 191)" stroke-width="1" d="M282.5,109.5C267.5,109.5,267.5,45.5,252.5,45.5L134.5,45.5"></path><path id="kity_path_51" fill="none" stroke="rgb(123, 115, 191)" stroke-width="1" d="M282.5,109.5C267.5,109.5,267.5,97.5,252.5,97.5L179.5,97.5"></path><path id="kity_path_53" fill="none" stroke="rgb(123, 115, 191)" stroke-width="1" d="M282.5,109.5C267.5,109.5,267.5,149.5,252.5,149.5L184.5,149.5"></path><path id="kity_path_55" fill="none" stroke="rgb(123, 115, 191)" stroke-width="1" d="M282.5,109.5C267.5,109.5,267.5,201.5,252.5,201.5L183.5,201.5"></path><path id="kity_path_57" fill="none" stroke="rgb(123, 115, 191)" stroke-width="1" d="M547,244.5A176.5,135,0,0,1,370.5,379.5"></path><path id="kity_path_59" fill="none" stroke="rgb(123, 115, 191)" stroke-width="1" d="M250.5,379.5C235.5,379.5,235.5,393.5,220.5,393.5L154.5,393.5"></path><path id="kity_path_61" fill="none" stroke="rgb(123, 115, 191)" stroke-width="1" d="M154.5,393.5C139.5,393.5,139.5,263.5,124.5,263.5L21.5,263.5"></path><path id="kity_path_63" fill="none" stroke="rgb(123, 115, 191)" stroke-width="1" d="M154.5,393.5C139.5,393.5,139.5,315.5,124.5,315.5L22.5,315.5"></path><path id="kity_path_65" fill="none" stroke="rgb(123, 115, 191)" stroke-width="1" d="M154.5,393.5C139.5,393.5,139.5,367.5,124.5,367.5L20.5,367.5"></path><path id="kity_path_67" fill="none" stroke="rgb(123, 115, 191)" stroke-width="1" d="M154.5,393.5C139.5,393.5,139.5,419.5,124.5,419.5L28.5,419.5"></path><path id="kity_path_69" fill="none" stroke="rgb(123, 115, 191)" stroke-width="1" d="M154.5,393.5C139.5,393.5,139.5,471.5,124.5,471.5L30.5,471.5"></path><path id="kity_path_71" fill="none" stroke="rgb(123, 115, 191)" stroke-width="1" d="M154.5,393.5C139.5,393.5,139.5,523.5,124.5,523.5L39.5,523.5"></path></g><g id="minder_node1"><path id="node_outline1" fill="rgb(123, 115, 191)" stroke="rgb(61, 57, 96)" d="M493.5,224.5h107a5,5,0,0,1,5,5v30a5,5,0,0,1,-5,5h-107a5,5,0,0,1,-5,-5v-30a5,5,0,0,1,5,-5z" stroke-width="3"></path><g id="node_text1" fill="white"><text id="kity_text_22" text-rendering="inherit" font-size="16" dy=".8em" y="236.5" x="512.5">Site Build</text></g></g><g id="kity_g_12"><path id="kity_path_13" fill="none" stroke="none" d="M512.5,244.5h0v0h0z"></path></g><g id="kity_g_14"><path id="kity_path_15" fill="none" stroke="none" d="M512.5,244.5h0v0h0z"></path><path id="kity_path_16" fill="none" stroke="none"></path></g><g id="minder_node2"><g id="node_expander3" style="cursor: pointer;"><path id="kity_path_157" fill="white" stroke="gray" d="M724.5,106.5A6,6,0,1,1,712.5,106.5A6,6,0,1,1,724.5,106.5"></path><path id="kity_path_158" fill="none" stroke="gray" d="M714,106.5L723,106.5"></path></g><path id="node_outline4" fill="rgb(239, 238, 246)" stroke="rgb(123, 115, 191)" d="M728.5,93.5h94a3,3,0,0,1,3,3v20a3,3,0,0,1,-3,3h-94a3,3,0,0,1,-3,-3v-20a3,3,0,0,1,3,-3z" stroke-width="1"></path><g id="node_text4" fill="black"><text id="kity_text_77" text-rendering="inherit" font-size="14" dy=".8em" y="99.5" x="745.5">Accounts</text></g></g><g id="minder_node3"><g id="node_expander1" display="none" style="cursor: pointer;"><path id="kity_path_151" fill="white" stroke="gray" d="M865.5,80.5A6,6,0,1,1,853.5,80.5A6,6,0,1,1,865.5,80.5"></path><path id="kity_path_152" fill="none" stroke="gray"></path></g><path id="node_outline2" fill="none" stroke="none" d="M870.5,65.5h73a5,5,0,0,1,5,5v20a5,5,0,0,1,-5,5h-73a5,5,0,0,1,-5,-5v-20a5,5,0,0,1,5,-5z"></path><g id="node_text2" fill="black"><text id="kity_text_73" text-rendering="inherit" font-size="12" dy=".8em" y="74.5" x="900.5">Linode</text></g><g id="node_progress1"><path id="kity_path_115" fill="#FFED83" stroke="none" d="M895,81A9,9,0,1,1,877,81A9,9,0,1,1,895,81"></path><path id="kity_path_116" fill="#43BC00" stroke="none" d="M886,81L895,81A9,9,0,0,1,877,81A9,9,0,0,1,895,81L886,81z"></path><path id="kity_path_117" fill="#8E8E8E" stroke="none" d="M886,74c4.418,0,8,3.582,8,8h1c0,-5.523,-3.477,-10,-9,-10S877,76.477,877,82h1C878,77.582,881.582,74,886,74z"></path><path id="kity_path_119" fill="#EEE" stroke="none" d="M891.812,78.896l-6.75,6.75l-4.5,-4.5L882.25,79.459l2.812,2.803l5.062,-5.053L891.812,78.896z"></path><path id="kity_path_118" fill="url(#kity_linearGradient_17)" stroke="none" d="M886,71C880.477,71,876,75.477,876,81c0,5.523,4.477,10,10,10s10,-4.477,10,-10C896,75.477,891.523,71,886,71zM886,89c-4.418,0,-8,-3.582,-8,-8s3.582,-8,8,-8s8,3.582,8,8S890.418,89,886,89z"></path></g></g><g id="minder_node4"><g id="node_expander2" display="none" style="cursor: pointer;"><path id="kity_path_154" fill="white" stroke="gray" d="M865.5,136.5A6,6,0,1,1,853.5,136.5A6,6,0,1,1,865.5,136.5"></path><path id="kity_path_155" fill="none" stroke="gray"></path></g><path id="node_outline3" fill="none" stroke="none" d="M870.5,125.5h51a5,5,0,0,1,5,5v12a5,5,0,0,1,-5,5h-51a5,5,0,0,1,-5,-5v-12a5,5,0,0,1,5,-5z"></path><g id="node_text3" fill="black"><text id="kity_text_75" text-rendering="inherit" font-size="12" dy=".8em" y="130.5" x="875.5">DisQus</text></g></g><g id="minder_node5"><g id="node_expander7" style="cursor: pointer;"><path id="kity_path_169" fill="white" stroke="gray" d="M724.5,254.5A6,6,0,1,1,712.5,254.5A6,6,0,1,1,724.5,254.5"></path><path id="kity_path_170" fill="none" stroke="gray" d="M714,254.5L723,254.5"></path></g><path id="node_outline8" fill="rgb(239, 238, 246)" stroke="rgb(123, 115, 191)" d="M728.5,241.5h73a3,3,0,0,1,3,3v20a3,3,0,0,1,-3,3h-73a3,3,0,0,1,-3,-3v-20a3,3,0,0,1,3,-3z" stroke-width="1"></path><g id="node_text8" fill="black"><text id="kity_text_85" text-rendering="inherit" font-size="14" dy=".8em" y="247.5" x="745.5">To Do</text></g></g><g id="minder_node6"><g id="node_expander4" display="none" style="cursor: pointer;"><path id="kity_path_160" fill="white" stroke="gray" d="M844.5,198.5A6,6,0,1,1,832.5,198.5A6,6,0,1,1,844.5,198.5"></path><path id="kity_path_161" fill="none" stroke="gray"></path></g><path id="node_outline5" fill="none" stroke="none" d="M849.5,187.5h62a5,5,0,0,1,5,5v12a5,5,0,0,1,-5,5h-62a5,5,0,0,1,-5,-5v-12a5,5,0,0,1,5,-5z"></path><g id="node_text5" fill="black"><text id="kity_text_79" text-rendering="inherit" font-size="12" dy=".8em" y="192.5" x="854.5">Add MP3</text></g></g><g id="minder_node7"><g id="node_expander5" display="none" style="cursor: pointer;"><path id="kity_path_163" fill="white" stroke="gray" d="M844.5,250.5A6,6,0,1,1,832.5,250.5A6,6,0,1,1,844.5,250.5"></path><path id="kity_path_164" fill="none" stroke="gray"></path></g><path id="node_outline6" fill="none" stroke="none" d="M849.5,239.5h67a5,5,0,0,1,5,5v12a5,5,0,0,1,-5,5h-67a5,5,0,0,1,-5,-5v-12a5,5,0,0,1,5,-5z"></path><g id="node_text6" fill="black"><text id="kity_text_81" text-rendering="inherit" font-size="12" dy=".8em" y="244.5" x="854.5">RSS Feed</text></g></g><g id="minder_node8"><g id="node_expander6" display="none" style="cursor: pointer;"><path id="kity_path_166" fill="white" stroke="gray" d="M844.5,306.5A6,6,0,1,1,832.5,306.5A6,6,0,1,1,844.5,306.5"></path><path id="kity_path_167" fill="none" stroke="gray"></path></g><path id="node_outline7" fill="none" stroke="none" d="M849.5,291.5h176a5,5,0,0,1,5,5v20a5,5,0,0,1,-5,5h-176a5,5,0,0,1,-5,-5v-20a5,5,0,0,1,5,-5z"></path><g id="node_text7" fill="black"><text id="kity_text_83" text-rendering="inherit" font-size="12" dy=".8em" y="300.5" x="879.5">Email Address for Domain</text></g><g id="node_progress2"><path id="kity_path_121" fill="#FFED83" stroke="none" d="M874,307A9,9,0,1,1,856,307A9,9,0,1,1,874,307"></path><path id="kity_path_122" fill="#43BC00" stroke="none" d="M865,307L874,307A9,9,0,0,1,856,307A9,9,0,0,1,874,307L865,307z"></path><path id="kity_path_123" fill="#8E8E8E" stroke="none" d="M865,300c4.418,0,8,3.582,8,8h1c0,-5.523,-3.477,-10,-9,-10S856,302.477,856,308h1C857,303.582,860.582,300,865,300z"></path><path id="kity_path_125" fill="#EEE" stroke="none" d="M870.812,304.896l-6.75,6.75l-4.5,-4.5L861.25,305.459l2.812,2.803l5.062,-5.053L870.812,304.896z"></path><path id="kity_path_124" fill="url(#kity_linearGradient_17)" stroke="none" d="M865,297C859.477,297,855,301.477,855,307c0,5.523,4.477,10,10,10s10,-4.477,10,-10C875,301.477,870.523,297,865,297zM865,315c-4.418,0,-8,-3.582,-8,-8s3.582,-8,8,-8s8,3.582,8,8S869.418,315,865,315z"></path></g></g><g id="minder_node9"><g id="node_expander8" display="none" style="cursor: pointer;"><path id="kity_path_172" fill="white" stroke="gray" d="M724.5,378.5A6,6,0,1,1,712.5,378.5A6,6,0,1,1,724.5,378.5"></path><path id="kity_path_173" fill="none" stroke="gray"></path></g><path id="node_outline9" fill="rgb(239, 238, 246)" stroke="rgb(123, 115, 191)" d="M728.5,361.5h102a3,3,0,0,1,3,3v28a3,3,0,0,1,-3,3h-102a3,3,0,0,1,-3,-3v-28a3,3,0,0,1,3,-3z" stroke-width="1"></path><g id="node_text9" fill="black"><text id="kity_text_87" text-rendering="inherit" font-size="14" dy=".8em" y="371.5" x="745.5">Logos</text></g><a id="kity_a_126" xlink:href="https://logomakr.com/" target="_blank" xlink:title="https://logomakr.com/" style="cursor: pointer;"><path id="kity_path_128" fill="rgba(255, 255, 255, 0)" stroke="none" d="M793.5,367.5h16a4,4,0,0,1,4,4v14a4,4,0,0,1,-4,4h-16a4,4,0,0,1,-4,-4v-14a4,4,0,0,1,4,-4z"></path><path id="kity_path_127" fill="#666" stroke="none" d="M808.114,383.724h-1.278c-1.668,0,-3.07,-1.07,-3.599,-2.556h4.877c0.707,0,1.278,-0.571,1.278,-1.278V377.334c0,-0.707,-0.571,-1.278,-1.278,-1.278h-4.877C803.766,374.571,805.168,373.5,806.836,373.5h1.278c2.116,0,3.834,1.716,3.834,3.834V379.89C811.948,382.008,810.23,383.724,808.114,383.724zM796.612,378.612c0,-0.707,0.573,-1.278,1.278,-1.278h7.668c0.707,0,1.278,0.571,1.278,1.278S806.265,379.89,805.558,379.89H797.89C797.185,379.89,796.612,379.319,796.612,378.612zM794.056,377.334V379.89c0,0.707,0.573,1.278,1.278,1.278h4.877c-0.528,1.486,-1.932,2.556,-3.599,2.556H795.334C793.216,383.724,791.5,382.008,791.5,379.89V377.334C791.5,375.216,793.216,373.5,795.334,373.5h1.278c1.667,0,3.071,1.071,3.599,2.556H795.334C794.629,376.056,794.056,376.627,794.056,377.334z"></path></a></g><g id="minder_node10"><g id="node_expander13" style="cursor: pointer;"><path id="kity_path_187" fill="white" stroke="gray" d="M381.5,109.5A6,6,0,1,1,369.5,109.5A6,6,0,1,1,381.5,109.5"></path><path id="kity_path_188" fill="none" stroke="gray" d="M371,109.5L380,109.5"></path></g><path id="node_outline14" fill="rgb(239, 238, 246)" stroke="rgb(123, 115, 191)" d="M285.5,96.5h80a3,3,0,0,1,3,3v20a3,3,0,0,1,-3,3h-80a3,3,0,0,1,-3,-3v-20a3,3,0,0,1,3,-3z" stroke-width="1"></path><g id="node_text14" fill="black"><text id="kity_text_97" text-rendering="inherit" font-size="14" dy=".8em" y="102.5" x="302.5">Add To</text></g></g><g id="minder_node11"><g id="node_expander9" display="none" style="cursor: pointer;"><path id="kity_path_175" fill="white" stroke="gray" d="M254.5,31.5A6,6,0,1,1,242.5,31.5A6,6,0,1,1,254.5,31.5"></path><path id="kity_path_176" fill="none" stroke="gray"></path></g><path id="node_outline10" fill="none" stroke="none" d="M139.5,20.5h98a5,5,0,0,1,5,5v12a5,5,0,0,1,-5,5h-98a5,5,0,0,1,-5,-5v-12a5,5,0,0,1,5,-5z"></path><g id="node_text10" fill="black"><text id="kity_text_89" text-rendering="inherit" font-size="12" dy=".8em" y="25.5" x="144.5">Google Podcast</text></g></g><g id="minder_node12"><g id="node_expander10" display="none" style="cursor: pointer;"><path id="kity_path_178" fill="white" stroke="gray" d="M254.5,83.5A6,6,0,1,1,242.5,83.5A6,6,0,1,1,254.5,83.5"></path><path id="kity_path_179" fill="none" stroke="gray"></path></g><path id="node_outline11" fill="none" stroke="none" d="M184.5,72.5h53a5,5,0,0,1,5,5v12a5,5,0,0,1,-5,5h-53a5,5,0,0,1,-5,-5v-12a5,5,0,0,1,5,-5z"></path><g id="node_text11" fill="black"><text id="kity_text_91" text-rendering="inherit" font-size="12" dy=".8em" y="77.5" x="189.5">Stitcher</text></g></g><g id="minder_node13"><g id="node_expander11" display="none" style="cursor: pointer;"><path id="kity_path_181" fill="white" stroke="gray" d="M254.5,135.5A6,6,0,1,1,242.5,135.5A6,6,0,1,1,254.5,135.5"></path><path id="kity_path_182" fill="none" stroke="gray"></path></g><path id="node_outline12" fill="none" stroke="none" d="M189.5,124.5h48a5,5,0,0,1,5,5v12a5,5,0,0,1,-5,5h-48a5,5,0,0,1,-5,-5v-12a5,5,0,0,1,5,-5z"></path><g id="node_text12" fill="black"><text id="kity_text_93" text-rendering="inherit" font-size="12" dy=".8em" y="129.5" x="194.5">iTunes</text></g></g><g id="minder_node14"><g id="node_expander12" display="none" style="cursor: pointer;"><path id="kity_path_184" fill="white" stroke="gray" d="M254.5,187.5A6,6,0,1,1,242.5,187.5A6,6,0,1,1,254.5,187.5"></path><path id="kity_path_185" fill="none" stroke="gray"></path></g><path id="node_outline13" fill="none" stroke="none" d="M188.5,176.5h49a5,5,0,0,1,5,5v12a5,5,0,0,1,-5,5h-49a5,5,0,0,1,-5,-5v-12a5,5,0,0,1,5,-5z"></path><g id="node_text13" fill="black"><text id="kity_text_95" text-rendering="inherit" font-size="12" dy=".8em" y="181.5" x="193.5">Spotify</text></g></g><g id="minder_node15"><g id="node_expander21" style="cursor: pointer;"><path id="kity_path_211" fill="white" stroke="gray" d="M381.5,379.5A6,6,0,1,1,369.5,379.5A6,6,0,1,1,381.5,379.5"></path><path id="kity_path_212" fill="none" stroke="gray" d="M371,379.5L380,379.5"></path></g><path id="node_outline22" fill="rgb(239, 238, 246)" stroke="rgb(123, 115, 191)" d="M253.5,366.5h112a3,3,0,0,1,3,3v20a3,3,0,0,1,-3,3h-112a3,3,0,0,1,-3,-3v-20a3,3,0,0,1,3,-3z" stroke-width="1"></path><g id="node_text22" fill="black"><text id="kity_text_113" text-rendering="inherit" font-size="14" dy=".8em" y="372.5" x="270.5">Front Matter</text></g></g><g id="minder_node16"><g id="node_expander20" style="cursor: pointer;"><path id="kity_path_208" fill="white" stroke="gray" d="M222.5,379.5A6,6,0,1,1,210.5,379.5A6,6,0,1,1,222.5,379.5"></path><path id="kity_path_209" fill="none" stroke="gray" d="M212,379.5L221,379.5"></path></g><path id="node_outline21" fill="none" stroke="none" d="M159.5,368.5h46a5,5,0,0,1,5,5v12a5,5,0,0,1,-5,5h-46a5,5,0,0,1,-5,-5v-12a5,5,0,0,1,5,-5z"></path><g id="node_text21" fill="black"><text id="kity_text_111" text-rendering="inherit" font-size="12" dy=".8em" y="373.5" x="164.5">Single</text></g></g><g id="minder_node17"><g id="node_expander14" display="none" style="cursor: pointer;"><path id="kity_path_190" fill="white" stroke="gray" d="M126.5,249.5A6,6,0,1,1,114.5,249.5A6,6,0,1,1,126.5,249.5"></path><path id="kity_path_191" fill="none" stroke="gray"></path></g><path id="node_outline15" fill="none" stroke="none" d="M26.5,238.5h83a5,5,0,0,1,5,5v12a5,5,0,0,1,-5,5h-83a5,5,0,0,1,-5,-5v-12a5,5,0,0,1,5,-5z"></path><g id="node_text15" fill="black"><text id="kity_text_99" text-rendering="inherit" font-size="12" dy=".8em" y="243.5" x="31.5">title: filename</text></g></g><g id="minder_node18"><g id="node_expander15" display="none" style="cursor: pointer;"><path id="kity_path_193" fill="white" stroke="gray" d="M126.5,301.5A6,6,0,1,1,114.5,301.5A6,6,0,1,1,126.5,301.5"></path><path id="kity_path_194" fill="none" stroke="gray"></path></g><path id="node_outline16" fill="none" stroke="none" d="M27.5,290.5h82a5,5,0,0,1,5,5v12a5,5,0,0,1,-5,5h-82a5,5,0,0,1,-5,-5v-12a5,5,0,0,1,5,-5z"></path><g id="node_text16" fill="black"><text id="kity_text_101" text-rendering="inherit" font-size="12" dy=".8em" y="295.5" x="32.5">date: Today()</text></g></g><g id="minder_node19"><g id="node_expander16" display="none" style="cursor: pointer;"><path id="kity_path_196" fill="white" stroke="gray" d="M126.5,353.5A6,6,0,1,1,114.5,353.5A6,6,0,1,1,126.5,353.5"></path><path id="kity_path_197" fill="none" stroke="gray"></path></g><path id="node_outline17" fill="none" stroke="none" d="M25.5,342.5h84a5,5,0,0,1,5,5v12a5,5,0,0,1,-5,5h-84a5,5,0,0,1,-5,-5v-12a5,5,0,0,1,5,-5z"></path><g id="node_text17" fill="black"><text id="kity_text_103" text-rendering="inherit" font-size="12" dy=".8em" y="347.5" x="30.5">highlight: true</text></g></g><g id="minder_node20"><g id="node_expander17" display="none" style="cursor: pointer;"><path id="kity_path_199" fill="white" stroke="gray" d="M126.5,405.5A6,6,0,1,1,114.5,405.5A6,6,0,1,1,126.5,405.5"></path><path id="kity_path_200" fill="none" stroke="gray"></path></g><path id="node_outline18" fill="none" stroke="none" d="M33.5,394.5h76a5,5,0,0,1,5,5v12a5,5,0,0,1,-5,5h-76a5,5,0,0,1,-5,-5v-12a5,5,0,0,1,5,-5z"></path><g id="node_text18" fill="black"><text id="kity_text_105" text-rendering="inherit" font-size="12" dy=".8em" y="399.5" x="38.5">author: Paul</text></g></g><g id="minder_node21"><g id="node_expander18" display="none" style="cursor: pointer;"><path id="kity_path_202" fill="white" stroke="gray" d="M126.5,457.5A6,6,0,1,1,114.5,457.5A6,6,0,1,1,126.5,457.5"></path><path id="kity_path_203" fill="none" stroke="gray"></path></g><path id="node_outline19" fill="none" stroke="none" d="M35.5,446.5h74a5,5,0,0,1,5,5v12a5,5,0,0,1,-5,5h-74a5,5,0,0,1,-5,-5v-12a5,5,0,0,1,5,-5z"></path><g id="node_text19" fill="black"><text id="kity_text_107" text-rendering="inherit" font-size="12" dy=".8em" y="451.5" x="40.5">Draft: False</text></g></g><g id="minder_node22"><g id="node_expander19" display="none" style="cursor: pointer;"><path id="kity_path_205" fill="white" stroke="gray" d="M126.5,509.5A6,6,0,1,1,114.5,509.5A6,6,0,1,1,126.5,509.5"></path><path id="kity_path_206" fill="none" stroke="gray"></path></g><path id="node_outline20" fill="none" stroke="none" d="M44.5,498.5h65a5,5,0,0,1,5,5v12a5,5,0,0,1,-5,5h-65a5,5,0,0,1,-5,-5v-12a5,5,0,0,1,5,-5z"></path><g id="node_text20" fill="black"><text id="kity_text_109" text-rendering="inherit" font-size="12" dy=".8em" y="503.5" x="49.5">mp3: path</text></g></g></g></g></svg>